<svg width="729" height="987" viewBox="0 0 729 987" fill="none" xmlns="http://www.w3.org/2000/svg">
<path d="M0.00714055 286.497C18.1041 286.423 36.2011 286.366 54.2982 286.332C56.4371 286.328 58.576 286.324 60.7149 286.32C61.1407 286.319 61.5665 286.318 62.0052 286.317C68.8901 286.303 75.775 286.277 82.6598 286.248C89.7299 286.217 96.7999 286.199 103.87 286.193C108.229 286.188 112.588 286.174 116.947 286.148C120.295 286.129 123.643 286.127 126.992 286.131C128.361 286.13 129.73 286.124 131.1 286.112C143.644 286.003 143.644 286.003 148.618 288.951C151.736 290.701 155.539 291.043 159.02 291.695C163.874 292.695 167.119 294.48 170.317 298.301C170.622 298.665 170.928 299.029 171.242 299.403C173.011 301.622 174.72 303.883 176.32 306.226C179.199 309.345 183.065 312.096 187.348 312.6C194.756 311.872 200.698 306.292 205.593 301.067C206.99 299.658 208.399 298.263 209.819 296.878C210.355 296.352 210.891 295.826 211.427 295.3C211.688 295.048 211.948 294.797 212.217 294.538C212.483 294.275 212.749 294.012 213.023 293.742C213.297 293.478 213.572 293.214 213.854 292.941C214.827 291.914 214.827 291.914 215.419 290.554C216.451 288.689 217.316 287.719 219.083 286.497C223.302 285.415 227.888 285.817 232.204 285.885C233.56 285.886 234.916 285.886 236.272 285.882C239.189 285.881 242.105 285.897 245.021 285.927C249.238 285.971 253.454 285.985 257.671 285.992C264.513 286.003 271.354 286.039 278.196 286.09C284.84 286.14 291.484 286.178 298.129 286.201C298.744 286.203 298.744 286.203 299.371 286.205C301.427 286.212 303.483 286.219 305.54 286.226C322.587 286.282 339.633 286.377 356.679 286.497C357.026 287.359 357.372 288.222 357.718 289.084C357.91 289.564 358.103 290.044 358.302 290.538C358.92 292.102 359.493 293.676 360.046 295.264C360.363 296.17 360.363 296.17 360.685 297.095C361.018 298.052 361.018 298.052 361.357 299.028C361.596 299.714 361.835 300.4 362.075 301.086C362.703 302.885 363.329 304.686 363.956 306.486C365.066 309.677 366.179 312.869 367.292 316.059C367.412 316.404 367.533 316.749 367.657 317.104C370.065 324.006 372.532 330.887 375.026 337.759C389.954 339.208 401.508 335.145 415.295 329.527C415.779 329.333 416.264 329.138 416.764 328.938C417.185 328.765 417.606 328.593 418.04 328.415C419.446 327.994 420.512 327.865 421.97 328.046C423.05 329.665 423.05 329.665 423.016 331.014C422.51 332.363 422.51 332.363 419.812 333.982C414.47 335.852 414.47 335.852 409.02 337.759C445.88 337.937 482.74 338.115 520.716 338.299C518.908 333.174 517.197 328.363 515.038 323.441C514.102 321.245 513.273 319.019 512.452 316.778C511.465 314.11 510.422 311.466 509.36 308.827C509.213 308.463 509.066 308.099 508.915 307.723C508.169 305.869 507.419 304.015 506.667 302.163C506.388 301.473 506.11 300.783 505.831 300.093C505.58 299.475 505.33 298.858 505.071 298.221C504.528 296.75 504.528 296.75 504.528 295.671C508.259 295.977 511.876 296.526 515.542 297.272C516.073 297.378 516.603 297.484 517.15 297.593C518.293 297.821 519.436 298.049 520.578 298.279C523.671 298.9 526.765 299.511 529.86 300.122C530.495 300.248 531.13 300.373 531.784 300.502C538.056 301.735 544.341 302.892 550.63 304.034C560.082 305.753 569.521 307.532 578.953 309.357C586.339 310.786 593.727 312.2 601.12 313.589C601.711 313.7 601.711 313.7 602.313 313.813C605.129 314.342 607.945 314.871 610.761 315.399C621.269 317.372 631.772 319.364 642.26 321.436C651.048 323.173 659.85 324.819 668.663 326.424C680.319 328.549 691.954 330.776 703.585 333.033C706.752 333.647 709.921 334.254 713.091 334.851C714.934 335.198 716.777 335.548 718.619 335.899C719.461 336.058 720.303 336.216 721.145 336.372C722.281 336.583 723.417 336.8 724.553 337.017C725.182 337.135 725.812 337.254 726.46 337.375C727.921 337.759 727.921 337.759 729 338.838C728.868 340.282 728.868 340.282 728.492 342.128C728.355 342.819 728.217 343.509 728.076 344.22C727.923 344.956 727.77 345.691 727.617 346.426C727.409 347.464 727.2 348.502 726.991 349.54C726.762 350.679 726.529 351.817 726.295 352.955C724.26 362.897 722.313 372.856 720.366 382.815C719.008 389.767 717.643 396.718 716.25 403.663C715.27 408.547 714.317 413.434 713.385 418.327C712.334 423.819 711.209 429.289 710.013 434.751C709.111 438.876 708.269 442.985 707.652 447.162C706.867 452.47 705.762 457.693 704.64 462.939C703.754 467.09 702.88 471.244 702.008 475.398C701.691 476.901 701.373 478.404 701.055 479.906C700.071 484.567 699.134 489.227 698.328 493.921C697.493 498.758 696.54 503.573 695.595 508.391C695.274 510.03 694.955 511.669 694.637 513.309C692.928 522.06 692.928 522.06 691.987 526.002C691.299 528.896 690.77 531.808 690.267 534.739C689.35 540.052 688.29 545.339 687.249 550.629C687.03 551.742 686.812 552.855 686.594 553.968C685.407 560.012 684.212 566.054 682.994 572.091C682.412 574.989 681.844 577.889 681.288 580.792C681.22 581.145 681.153 581.498 681.083 581.861C680.758 583.554 680.435 585.247 680.116 586.94C679.368 590.851 678.559 594.745 677.713 598.636C676.379 604.78 675.11 610.933 673.942 617.111C673.841 617.645 673.841 617.645 673.738 618.19C673.259 620.726 672.784 623.264 672.309 625.802C669.066 643.123 669.066 643.123 667.298 650.916C666.629 653.889 666.089 656.865 665.601 659.873C665.153 662.566 664.625 665.243 664.099 667.922C663.985 668.507 663.87 669.092 663.752 669.694C663.512 670.922 663.271 672.149 663.03 673.377C662.665 675.235 662.302 677.094 661.939 678.953C660.927 684.126 659.9 689.283 658.676 694.411C658.158 696.752 657.757 699.111 657.351 701.474C656.435 706.788 655.375 712.074 654.334 717.364C654.115 718.477 653.897 719.59 653.678 720.703C652.492 726.747 651.297 732.788 650.079 738.826C649.496 741.724 648.929 744.624 648.373 747.527C648.305 747.88 648.237 748.233 648.167 748.596C647.843 750.289 647.52 751.982 647.2 753.675C646.452 757.586 645.643 761.48 644.798 765.371C643.463 771.515 642.195 777.668 641.027 783.846C640.926 784.38 640.926 784.38 640.823 784.924C640.344 787.461 639.868 789.999 639.393 792.536C636.15 809.858 636.15 809.858 634.383 817.651C633.714 820.624 633.173 823.6 632.686 826.608C632.238 829.301 631.71 831.978 631.184 834.656C631.069 835.241 630.955 835.826 630.837 836.429C630.597 837.657 630.356 838.884 630.115 840.112C629.75 841.97 629.387 843.829 629.024 845.688C628.011 850.861 626.985 856.018 625.76 861.146C625.242 863.487 624.842 865.846 624.436 868.209C623.519 873.522 622.46 878.809 621.418 884.099C621.2 885.212 620.981 886.325 620.763 887.438C619.577 893.482 618.381 899.523 617.164 905.561C616.44 909.162 615.743 912.769 615.052 916.377C614.915 917.095 614.777 917.813 614.64 918.532C614.571 918.889 614.503 919.246 614.432 919.614C613.51 924.417 612.521 929.201 611.469 933.978C609.809 941.54 608.415 949.148 607.006 956.76C605.455 965.131 603.813 973.467 601.937 981.771C601.619 983.29 601.371 984.822 601.116 986.352C425.899 986.352 250.681 986.352 70.1545 986.352C68.9404 977.854 68.9404 977.854 68.5986 974.368C68.5603 973.982 68.522 973.597 68.4825 973.199C68.3576 971.937 68.2351 970.675 68.1126 969.413C68.0221 968.495 67.9315 967.576 67.8408 966.657C67.6467 964.689 67.4536 962.72 67.2614 960.752C66.9539 957.603 66.6439 954.455 66.3337 951.307C65.7275 945.152 65.1238 938.998 64.5203 932.843C63.7605 925.095 62.9993 917.347 62.2364 909.599C61.9804 906.999 61.7249 904.4 61.4707 901.8C60.2877 889.705 59.0565 877.616 57.7759 865.531C56.2552 851.177 54.8118 836.815 53.3973 822.45C53.0691 819.12 52.7396 815.791 52.4102 812.461C51.509 803.347 50.6096 794.234 49.7103 785.12C48.8831 776.737 48.0554 768.354 47.2262 759.971C46.9022 756.695 46.5786 753.42 46.2561 750.144C44.9163 736.539 43.5443 722.939 42.1029 709.344C40.5512 694.708 39.0834 680.065 37.6401 665.418C37.2968 661.937 36.9521 658.456 36.6076 654.974C36.0303 649.14 35.4536 643.305 34.8774 637.47C34.8414 637.105 34.8053 636.74 34.7682 636.364C34.4761 633.406 34.1841 630.448 33.892 627.491C33.6366 624.904 33.3813 622.318 33.1258 619.731C33.0898 619.367 33.0538 619.002 33.0167 618.626C32.4064 612.445 31.7952 606.264 31.1835 600.084C30.8445 596.657 30.5058 593.231 30.1682 589.805C28.7262 575.172 27.2455 560.545 25.6952 545.923C24.2564 532.344 22.8993 518.758 21.5612 505.168C21.233 501.838 20.9035 498.509 20.5741 495.179C19.6729 486.065 18.7735 476.952 17.8742 467.838C17.047 459.455 16.2193 451.072 15.3901 442.689C15.0661 439.413 14.7425 436.138 14.42 432.863C12.9983 418.425 11.5344 403.994 10.0067 389.567C8.81977 378.358 7.67491 367.146 6.56903 355.929C6.38421 354.055 6.19876 352.182 6.01334 350.308C5.57728 345.902 5.14218 341.496 4.70778 337.09C4.26224 332.571 3.81496 328.052 3.3669 323.534C2.97637 319.594 2.58686 315.655 2.19817 311.716C1.96838 309.387 1.73823 307.058 1.50708 304.729C1.29238 302.566 1.07896 300.403 0.866533 298.239C0.78868 297.448 0.710377 296.657 0.631591 295.867C0.524212 294.788 0.418619 293.71 0.313116 292.631C0.253655 292.029 0.194193 291.427 0.13293 290.807C0.0200802 289.361 -0.0172889 287.946 0.00714055 286.497Z" fill="#7DDA38"/>
<path d="M0.00714055 286.497C18.1041 286.423 36.2011 286.366 54.2982 286.332C56.4371 286.328 58.576 286.324 60.7149 286.32C61.1407 286.319 61.5665 286.318 62.0052 286.317C68.8901 286.303 75.775 286.277 82.6598 286.248C89.7299 286.217 96.7999 286.199 103.87 286.193C108.229 286.188 112.588 286.174 116.947 286.148C120.295 286.129 123.643 286.127 126.992 286.131C128.361 286.13 129.73 286.124 131.1 286.112C143.644 286.003 143.644 286.003 148.618 288.951C151.736 290.701 155.539 291.043 159.02 291.695C163.874 292.695 167.119 294.48 170.317 298.301C170.622 298.665 170.928 299.029 171.242 299.403C173.011 301.622 174.72 303.883 176.32 306.226C179.199 309.345 183.065 312.096 187.348 312.6C194.756 311.872 200.698 306.292 205.593 301.067C206.99 299.658 208.399 298.263 209.819 296.878C210.355 296.352 210.891 295.826 211.427 295.3C211.688 295.048 211.948 294.797 212.217 294.538C212.483 294.275 212.749 294.012 213.023 293.742C213.297 293.478 213.572 293.214 213.854 292.941C214.827 291.914 214.827 291.914 215.419 290.554C216.451 288.689 217.316 287.719 219.083 286.497C223.302 285.415 227.888 285.817 232.204 285.885C233.56 285.886 234.916 285.886 236.272 285.882C239.189 285.881 242.105 285.897 245.021 285.927C249.238 285.971 253.454 285.985 257.671 285.992C264.513 286.003 271.354 286.039 278.196 286.09C284.84 286.14 291.484 286.178 298.129 286.201C298.744 286.203 298.744 286.203 299.371 286.205C301.427 286.212 303.483 286.219 305.54 286.226C322.587 286.282 339.633 286.377 356.679 286.497C357.026 287.359 357.372 288.222 357.718 289.084C357.91 289.564 358.103 290.044 358.302 290.538C358.92 292.102 359.493 293.676 360.046 295.264C360.363 296.17 360.363 296.17 360.685 297.095C361.018 298.052 361.018 298.052 361.357 299.028C361.596 299.714 361.835 300.4 362.075 301.086C362.703 302.885 363.329 304.686 363.956 306.486C365.066 309.677 366.179 312.869 367.292 316.059C367.412 316.404 367.533 316.749 367.657 317.104C370.065 324.006 372.532 330.887 375.026 337.759C389.954 339.208 401.508 335.145 415.295 329.527C415.779 329.333 416.264 329.138 416.764 328.938C417.185 328.765 417.606 328.593 418.04 328.415C419.446 327.994 420.512 327.865 421.97 328.046C423.05 329.665 423.05 329.665 423.016 331.014C422.51 332.363 422.51 332.363 419.812 333.982C414.47 335.851 414.47 335.851 409.02 337.759C445.88 337.937 482.74 338.115 520.716 338.299C518.908 333.174 517.197 328.363 515.038 323.441C514.102 321.245 513.273 319.019 512.452 316.778C511.465 314.11 510.422 311.466 509.36 308.827C509.213 308.463 509.066 308.099 508.915 307.723C508.169 305.869 507.419 304.015 506.667 302.163C506.388 301.473 506.11 300.783 505.831 300.093C505.58 299.475 505.33 298.858 505.071 298.221C504.528 296.75 504.528 296.75 504.528 295.671C508.259 295.977 511.876 296.526 515.542 297.272C516.073 297.378 516.603 297.484 517.15 297.593C518.293 297.821 519.436 298.049 520.578 298.279C523.671 298.9 526.765 299.511 529.86 300.122C530.495 300.248 531.13 300.373 531.784 300.502C538.056 301.735 544.341 302.892 550.63 304.034C560.082 305.753 569.521 307.532 578.953 309.357C586.339 310.786 593.727 312.2 601.12 313.589C601.711 313.7 601.711 313.7 602.313 313.813C605.129 314.342 607.945 314.871 610.761 315.399C621.269 317.372 631.772 319.364 642.26 321.436C651.048 323.173 659.85 324.819 668.663 326.424C680.319 328.549 691.954 330.776 703.585 333.033C706.752 333.647 709.921 334.254 713.091 334.851C714.934 335.198 716.777 335.548 718.619 335.899C719.461 336.058 720.303 336.216 721.145 336.372C722.281 336.583 723.417 336.8 724.553 337.017C725.182 337.135 725.812 337.254 726.46 337.375C727.921 337.759 727.921 337.759 729 338.838C555.563 338.838 382.127 338.838 203.434 338.838C203.441 385.535 203.447 432.233 203.453 480.345C203.456 508.068 203.459 535.791 203.46 563.514C203.461 564.385 203.461 565.256 203.461 566.127C203.461 566.564 203.461 567.001 203.461 567.451C203.462 582.884 203.463 598.316 203.464 613.749C203.464 615.222 203.464 616.695 203.464 618.168C203.466 640.733 203.468 663.298 203.472 685.863C203.472 686.348 203.472 686.834 203.472 687.334C203.473 695.162 203.474 702.991 203.475 710.819C203.479 733.358 203.482 755.897 203.484 778.436C203.484 779.13 203.484 779.13 203.484 779.839C203.484 790.005 203.485 800.171 203.485 810.336C203.485 814.426 203.485 818.516 203.486 822.606C203.486 823.054 203.486 823.501 203.486 823.963C203.486 838.403 203.489 852.843 203.492 867.283C203.495 881.82 203.497 896.358 203.496 910.895C203.496 912.901 203.496 914.907 203.495 916.912C203.495 917.306 203.495 917.699 203.495 918.104C203.495 924.348 203.497 930.591 203.499 936.835C203.501 942.964 203.502 949.093 203.5 955.222C203.499 958.505 203.499 961.788 203.502 965.071C203.504 968.051 203.504 971.03 203.501 974.01C203.501 975.088 203.502 976.166 203.503 977.244C203.505 978.695 203.504 980.146 203.501 981.597C203.503 982.022 203.504 982.447 203.506 982.885C203.496 985.751 203.496 985.751 202.895 986.352C201.19 986.405 199.496 986.422 197.791 986.417C197.248 986.417 196.706 986.418 196.147 986.418C194.314 986.419 192.481 986.416 190.648 986.413C189.341 986.413 188.033 986.413 186.725 986.414C183.902 986.414 181.078 986.412 178.255 986.409C174.173 986.405 170.091 986.403 166.008 986.403C159.386 986.402 152.764 986.398 146.141 986.393C139.707 986.388 133.272 986.384 126.838 986.382C126.441 986.382 126.045 986.381 125.637 986.381C123.648 986.381 121.66 986.38 119.672 986.379C103.166 986.374 86.6602 986.364 70.1545 986.352C69.293 980.718 68.6632 975.084 68.1126 969.413C68.0221 968.495 67.9315 967.576 67.8408 966.657C67.6467 964.689 67.4536 962.72 67.2614 960.752C66.9539 957.603 66.6439 954.455 66.3337 951.307C65.7275 945.152 65.1238 938.997 64.5203 932.843C63.7605 925.095 62.9993 917.347 62.2364 909.599C61.9804 906.999 61.7249 904.4 61.4707 901.8C60.2877 889.705 59.0565 877.616 57.7759 865.531C56.2552 851.177 54.8118 836.815 53.3973 822.45C53.0691 819.12 52.7396 815.79 52.4102 812.461C51.509 803.347 50.6096 794.234 49.7103 785.12C48.8831 776.737 48.0554 768.354 47.2262 759.971C46.9022 756.695 46.5786 753.42 46.2561 750.144C44.9163 736.539 43.5443 722.939 42.1029 709.344C40.5512 694.708 39.0834 680.065 37.6401 665.418C37.2968 661.936 36.9521 658.455 36.6076 654.974C36.0303 649.14 35.4536 643.305 34.8774 637.47C34.8414 637.105 34.8053 636.74 34.7682 636.364C34.4761 633.406 34.1841 630.448 33.892 627.491C33.6366 624.904 33.3813 622.318 33.1258 619.731C33.0898 619.366 33.0538 619.002 33.0167 618.626C32.4064 612.445 31.7952 606.264 31.1835 600.084C30.8445 596.657 30.5058 593.231 30.1682 589.805C28.7262 575.172 27.2455 560.545 25.6952 545.923C24.2564 532.344 22.8993 518.758 21.5612 505.168C21.233 501.838 20.9035 498.509 20.5741 495.179C19.6729 486.065 18.7735 476.952 17.8742 467.838C17.047 459.455 16.2193 451.072 15.3901 442.689C15.0661 439.413 14.7425 436.138 14.42 432.863C12.9983 418.425 11.5344 403.994 10.0067 389.567C8.81977 378.358 7.67491 367.146 6.56903 355.929C6.38421 354.055 6.19876 352.182 6.01334 350.308C5.57728 345.902 5.14218 341.496 4.70778 337.09C4.26224 332.571 3.81496 328.052 3.3669 323.534C2.97637 319.594 2.58686 315.655 2.19817 311.716C1.96838 309.387 1.73823 307.058 1.50708 304.729C1.29238 302.566 1.07896 300.403 0.866533 298.239C0.78868 297.448 0.710377 296.657 0.631591 295.867C0.524212 294.788 0.418619 293.71 0.313116 292.631C0.253655 292.029 0.194193 291.427 0.13293 290.807C0.0200802 289.361 -0.0172889 287.946 0.00714055 286.497Z" fill="#3D6E38"/>
<path d="M493.197 523.38C493.69 523.501 494.183 523.623 494.691 523.748C512.931 528.396 530.572 537.782 544.998 549.82C545.46 550.199 545.46 550.199 545.931 550.586C552.952 556.367 559.351 562.614 564.963 569.785C565.302 570.189 565.641 570.593 565.99 571.009C588.892 598.502 598.488 636.599 595.542 671.893C594.324 685.007 591.639 697.727 587.086 710.079C586.837 710.761 586.837 710.761 586.583 711.456C581.061 726.35 572.917 739.629 562.048 751.205C560.796 752.547 559.587 753.916 558.387 755.304C556.414 757.527 554.287 759.435 552.013 761.341C551.521 761.772 551.029 762.203 550.523 762.648C540.052 771.79 528.303 779.214 515.749 785.159C514.833 785.598 513.927 786.055 513.021 786.514C503.174 791.375 492.402 794.989 481.865 798.033C481.17 798.247 480.476 798.462 479.781 798.676C455.916 805.867 429.8 808.187 405.108 804.913C404.682 804.858 404.255 804.803 403.816 804.746C398.356 804.024 393.247 802.891 387.976 801.271C387.144 801.049 386.31 800.831 385.474 800.622C376.278 798.269 367.744 794.377 359.377 789.939C358.44 789.443 358.44 789.443 357.485 788.936C342.758 780.818 329.225 769.105 319.447 755.405C319.225 755.1 319.004 754.794 318.775 754.479C312.574 745.859 308.015 736.358 304.282 726.447C303.764 725.096 303.215 723.759 302.665 722.421C301.802 720.268 301.135 718.14 300.595 715.88C300.51 715.524 300.424 715.169 300.336 714.802C300.047 713.589 299.765 712.374 299.482 711.159C299.314 710.447 299.314 710.447 299.142 709.721C296.757 699.639 295.129 689.841 295.018 679.455C295.008 678.575 295.008 678.575 294.997 677.678C294.726 648.556 299.409 621.506 312.433 595.146C312.816 594.361 312.816 594.361 313.206 593.561C319.283 581.192 326.809 569.787 336.162 559.646C337.122 558.597 338.031 557.523 338.94 556.43C350.49 543.223 366.645 532.56 383.339 527.256C385.264 526.662 385.264 526.662 386.973 525.841C389.922 524.548 393.083 523.893 396.205 523.143C396.891 522.979 397.577 522.814 398.284 522.644C428.399 515.554 463.185 515.939 493.197 523.38Z" fill="#FEDFB4"/>
<path d="M316.21 2.13084C317.65 3.12227 318.967 4.22658 320.291 5.36841C321.042 5.99792 321.794 6.62601 322.548 7.25277C322.928 7.56909 323.307 7.8854 323.699 8.21129C325.5 9.68115 327.359 11.0677 329.228 12.4506C332.539 14.9096 335.799 17.4242 339.035 19.9817C341.322 21.7885 343.621 23.5783 345.921 25.3671C346.334 25.6882 346.746 26.0092 347.171 26.3399C349.33 28.0186 351.496 29.686 353.674 31.34C363.696 38.9734 363.696 38.9734 364.474 43.4415C365.201 52.6426 359.387 62.1142 353.769 69.0069C347.936 75.6618 347.936 75.6618 343.729 76.595C342.559 76.5447 341.39 76.4757 340.222 76.3926C338.312 76.3705 337.083 76.4023 335.384 77.2905C333.473 79.191 332.957 80.7908 332.878 83.4748C333.047 85.7841 333.405 88.0642 333.752 90.3523C334.066 92.5979 334.311 94.8466 334.546 97.1017C334.591 97.5341 334.636 97.9665 334.682 98.412C334.774 99.2983 334.866 100.185 334.958 101.071C335.565 106.912 336.217 112.741 337.033 118.557C338.265 128.278 334.818 134.465 329.059 141.928C328.717 142.368 328.375 142.808 328.022 143.261C326.395 145.371 324.83 147.525 323.258 149.676C320.324 153.667 317.356 157.631 314.379 161.59C310.82 166.33 307.308 171.104 303.799 175.88C299.619 181.571 295.419 187.245 291.176 192.888C288.891 195.93 286.626 198.985 284.374 202.051C281.45 206.031 278.495 209.987 275.526 213.934C273.251 216.962 270.999 220.007 268.759 223.061C265.732 227.187 262.641 231.261 259.531 235.324C257.167 238.419 254.839 241.537 252.538 244.679C248.784 249.802 244.941 254.854 241.077 259.895C240.259 260.964 239.443 262.035 238.628 263.107C235.738 266.897 232.762 270.61 229.746 274.3C226.724 278 223.714 281.71 220.702 285.418C287.744 285.685 287.744 285.685 356.14 285.958C354.37 280.588 354.37 280.588 352.464 275.267C350.179 268.308 352.857 260.671 355.582 254.253C356.05 253.15 356.509 252.043 356.966 250.935C358.276 247.766 359.606 244.605 360.942 241.446C361.775 239.475 362.601 237.501 363.422 235.525C363.888 234.413 364.364 233.306 364.84 232.198C365.126 231.513 365.412 230.827 365.697 230.141C365.949 229.548 366.201 228.954 366.46 228.342C367.204 225.598 366.528 223.126 365.819 220.431C365.652 219.796 365.485 219.162 365.313 218.508C364.69 218.486 364.067 218.464 363.424 218.441C359.883 217.996 357.694 215.723 355.229 213.315C349.065 205.35 347.256 192.697 348.046 182.895C348.521 181.069 349.176 179.613 350.204 178.039C350.516 177.538 350.828 177.037 351.149 176.521C354.425 173.336 359.487 172.078 363.694 170.552C365.01 170.07 366.325 169.588 367.64 169.106C368.268 168.877 368.896 168.647 369.543 168.411C371.555 167.674 373.561 166.924 375.565 166.168C379.475 164.7 383.387 163.239 387.302 161.784C387.909 161.557 388.516 161.33 389.142 161.096C392.052 160.016 394.966 158.97 397.914 158C400.142 157.267 402.313 156.474 404.467 155.544C408.168 153.957 411.641 152.83 415.634 154.164C424.231 158.331 429.134 168.18 432.427 176.734C434.245 182.175 434.519 186.716 432.223 192.068C431.8 192.513 431.377 192.959 430.941 193.417C429.903 194.686 429.903 194.686 430.269 196.069C430.684 197.462 431.157 198.807 431.683 200.162C431.861 200.696 432.039 201.231 432.223 201.781C433.35 202.491 433.35 202.491 434.767 203.086C435.3 203.326 435.833 203.567 436.382 203.815C436.957 204.067 437.532 204.32 438.125 204.58C438.71 204.843 439.296 205.106 439.899 205.376C441.654 206.162 443.413 206.941 445.173 207.717C446.104 208.128 447.035 208.54 447.966 208.952C448.382 209.136 448.799 209.32 449.228 209.51C449.626 209.686 450.024 209.862 450.434 210.044C450.829 210.218 451.224 210.392 451.631 210.572C454.362 211.783 457.047 213.064 459.704 214.43C460.97 215.073 462.24 215.691 463.524 216.297C471.397 220.049 476.46 224.448 479.808 232.673C480.111 233.398 480.111 233.398 480.421 234.138C482.639 239.49 484.739 244.89 486.842 250.288C488.494 254.525 490.184 258.747 491.883 262.967C492.964 265.658 494.025 268.356 495.06 271.066C496.428 274.638 497.877 278.173 499.335 281.709C501.035 285.855 502.708 290.003 504.225 294.22C505.915 298.914 507.767 303.539 509.63 308.165C512.137 314.39 514.576 320.64 516.982 326.905C517.236 327.565 517.489 328.225 517.751 328.904C517.985 329.514 518.22 330.124 518.461 330.752C518.974 332.05 519.514 333.321 520.09 334.591C520.716 336.14 520.716 336.14 520.716 338.299C483.501 338.299 446.285 338.299 407.941 338.299C409.204 337.036 410.115 336.767 411.802 336.208C412.354 336.021 412.906 335.835 413.474 335.643C414.642 335.255 415.809 334.867 416.977 334.479C417.529 334.293 418.08 334.106 418.649 333.914C419.156 333.746 419.663 333.578 420.186 333.404C421.509 332.966 421.509 332.966 422.51 331.823C422.336 330.151 422.336 330.151 421.97 328.586C418.42 328.861 415.567 329.828 412.291 331.185C399.544 336.258 388.812 339.889 375.026 338.299C373.017 333.641 371.257 328.926 369.6 324.134C369.347 323.407 369.094 322.68 368.841 321.953C368.179 320.052 367.519 318.151 366.86 316.249C366.2 314.347 365.538 312.446 364.877 310.545C363.894 307.721 362.913 304.897 361.932 302.072C360.785 298.769 359.631 295.468 358.476 292.168C358.302 291.672 358.129 291.177 357.95 290.666C357.527 289.456 357.103 288.247 356.679 287.037C339.233 286.902 321.787 286.797 304.34 286.734C302.28 286.727 300.219 286.719 298.159 286.711C297.748 286.709 297.338 286.708 296.915 286.706C290.277 286.68 283.638 286.634 277 286.579C270.186 286.524 263.372 286.491 256.558 286.479C252.354 286.47 248.152 286.445 243.948 286.397C240.723 286.361 237.498 286.358 234.273 286.366C232.951 286.364 231.63 286.352 230.308 286.329C223.39 285.846 223.39 285.846 217.257 288.337C216.024 289.83 215.131 291.267 214.226 292.973C213.271 294.064 213.271 294.064 212.431 294.874C212.166 295.135 211.902 295.395 211.63 295.664C211.246 296.035 211.246 296.035 210.854 296.413C210.59 296.672 210.325 296.931 210.053 297.199C209.287 297.95 208.519 298.699 207.751 299.448C206.512 300.676 205.279 301.903 204.092 303.183C199.686 307.869 194.073 312.246 187.584 313.207C181.253 312.334 176.877 307.851 173.183 302.989C172.725 302.379 172.267 301.768 171.809 301.157C170.726 299.721 169.627 298.322 168.462 296.952C168.191 296.634 167.921 296.315 167.642 295.987C165.119 293.588 162.464 293.075 159.154 292.467C149.674 290.593 149.674 290.593 146.437 288.674C143.308 286.864 140.614 286.73 137.052 286.757C136.465 286.753 135.877 286.749 135.272 286.745C133.309 286.734 131.346 286.738 129.383 286.742C127.974 286.738 126.565 286.732 125.155 286.726C122.124 286.713 119.093 286.708 116.062 286.709C111.679 286.71 107.297 286.699 102.914 286.685C95.8032 286.663 88.6922 286.65 81.5811 286.644C74.6751 286.637 67.7691 286.626 60.8631 286.609C60.2241 286.608 60.2241 286.608 59.5722 286.606C57.4351 286.601 55.298 286.596 53.1608 286.59C35.443 286.546 17.7251 286.516 0.00714111 286.497C0.00714111 286.319 0.00714111 286.141 0.00714111 285.958C46.3044 285.78 92.6017 285.602 140.302 285.418C138.699 284.35 137.097 283.281 135.446 282.181C133.568 280.644 131.814 278.989 130.05 277.324C129.704 277.013 129.358 276.702 129.002 276.382C125.513 273.127 123.277 269.093 121.051 264.924C120.795 264.446 120.538 263.967 120.273 263.474C119.763 262.518 119.259 261.557 118.763 260.593C116.851 256.993 114.882 254.583 110.995 253.009C110.58 252.835 110.165 252.661 109.737 252.482C109.317 252.311 108.898 252.14 108.466 251.963C102.139 249.275 95.7551 246.351 92.2779 240.092C90.4676 234.245 92.2319 228.223 94.8937 222.941C101.363 210.749 110.57 199.948 119.104 189.17C119.816 188.267 120.525 187.362 121.233 186.455C124.171 182.695 127.157 178.978 130.176 175.282C131.969 173.08 133.723 170.854 135.446 168.596C137.745 165.58 140.122 162.635 142.521 159.699C144.415 157.378 146.283 155.039 148.126 152.678C150.544 149.58 153.014 146.528 155.499 143.484C157.383 141.171 159.241 138.841 161.076 136.49C163.495 133.393 165.965 130.34 168.449 127.296C170.333 124.983 172.191 122.653 174.027 120.302C176.445 117.205 178.915 114.152 181.4 111.108C183.283 108.796 185.141 106.465 186.977 104.114C189.721 100.6 192.53 97.1408 195.347 93.6849C196.612 92.132 197.869 90.5723 199.118 89.0056C200.657 87.0743 202.212 85.1565 203.772 83.2423C206.34 80.0919 208.89 76.9306 211.394 73.7284C213.482 71.0565 215.603 68.4147 217.759 65.7967C219.09 64.1752 220.41 62.5452 221.729 60.9135C222.925 59.4363 224.126 57.9639 225.33 56.4927C225.962 55.7164 226.589 54.9355 227.215 54.1533C232.459 47.7988 239.569 45.8184 247.454 44.6218C248.085 44.5209 248.716 44.42 249.366 44.3161C251.367 43.9972 253.369 43.6863 255.371 43.3761C260.364 42.5908 265.355 41.7947 270.344 40.9817C270.806 40.9079 271.268 40.8342 271.744 40.7583C272.89 40.5724 274.033 40.3744 275.175 40.1702C275.763 40.0689 276.351 39.9677 276.957 39.8634C279.208 39.1029 280.389 37.6829 281.726 35.7754C282.338 34.1873 282.097 33.4402 281.676 31.8086C281.122 23.5824 283.429 18.9974 288.691 12.9227C291.679 9.57199 294.881 6.6579 298.504 4.01942C298.805 3.79844 299.106 3.57747 299.417 3.3498C305.034 -0.581467 310.147 -1.1364 316.21 2.13084Z" fill="#FEDFB4"/>
<path d="M2.16547 286.497C19.9875 286.423 37.8095 286.366 55.6316 286.332C57.7381 286.328 59.8446 286.324 61.951 286.32C62.3704 286.319 62.7897 286.318 63.2218 286.317C70.002 286.303 76.7822 286.277 83.5624 286.248C90.5252 286.217 97.4879 286.199 104.451 286.193C108.743 286.188 113.036 286.174 117.329 286.148C120.626 286.129 123.924 286.127 127.221 286.131C128.57 286.13 129.918 286.124 131.266 286.112C143.618 286.003 143.618 286.003 148.611 288.951C151.736 290.697 155.535 291.042 159.02 291.695C163.874 292.695 167.119 294.48 170.317 298.301C170.622 298.665 170.927 299.029 171.242 299.403C173.011 301.622 174.719 303.883 176.32 306.226C179.199 309.345 183.065 312.096 187.348 312.6C194.756 311.872 200.698 306.292 205.593 301.067C206.99 299.658 208.399 298.263 209.819 296.878C210.355 296.352 210.891 295.826 211.427 295.3C211.688 295.048 211.948 294.797 212.217 294.538C212.483 294.275 212.749 294.012 213.023 293.742C213.297 293.478 213.572 293.214 213.854 292.941C214.827 291.914 214.827 291.914 215.419 290.554C216.451 288.689 217.316 287.719 219.083 286.497C223.302 285.415 227.888 285.817 232.204 285.885C233.56 285.886 234.916 285.886 236.272 285.882C239.189 285.881 242.105 285.897 245.021 285.927C249.238 285.971 253.454 285.985 257.671 285.992C264.513 286.003 271.354 286.039 278.196 286.09C284.84 286.14 291.484 286.178 298.129 286.201C298.744 286.203 298.744 286.203 299.371 286.205C301.427 286.212 303.483 286.219 305.54 286.226C322.587 286.282 339.633 286.377 356.679 286.497C357.026 287.359 357.372 288.221 357.717 289.083C357.91 289.563 358.103 290.043 358.301 290.537C358.923 292.109 359.499 293.693 360.054 295.29C360.267 295.899 360.48 296.508 360.699 297.136C360.922 297.78 361.146 298.423 361.376 299.085C361.616 299.775 361.857 300.465 362.097 301.154C362.728 302.963 363.358 304.771 363.987 306.58C364.983 309.443 365.98 312.305 366.978 315.166C367.222 315.865 367.466 316.565 367.709 317.264C368.944 320.811 370.192 324.353 371.494 327.877C371.798 328.701 371.798 328.701 372.109 329.542C372.485 330.554 372.864 331.565 373.246 332.574C373.411 333.017 373.576 333.46 373.746 333.916C373.89 334.296 374.034 334.677 374.182 335.069C374.486 336.14 374.486 336.14 374.486 338.299C353.173 338.51 331.861 338.671 310.547 338.767C308.008 338.778 305.469 338.79 302.93 338.802C302.424 338.805 301.919 338.807 301.399 338.81C293.308 338.849 285.219 338.921 277.129 339.006C268.774 339.093 260.42 339.143 252.066 339.162C247.395 339.173 242.726 339.199 238.056 339.268C214.141 339.612 193.045 337.151 170.104 330.27C164.539 328.612 158.906 327.22 153.27 325.823C150.507 325.135 147.748 324.427 144.99 323.721C143.926 323.449 142.862 323.178 141.798 322.906C134.438 321.027 127.079 319.144 119.72 317.26C114.925 316.033 110.129 314.806 105.334 313.579C102.915 312.961 100.497 312.342 98.0785 311.724C97.1117 311.476 96.1449 311.229 95.1782 310.982C66.1749 303.562 66.1749 303.562 64.7248 303.191C63.7579 302.944 62.791 302.696 61.8241 302.449C59.4092 301.831 56.9944 301.214 54.5796 300.596C50.2046 299.476 45.8294 298.357 41.4533 297.242C28.3412 293.9 15.2453 290.502 2.16547 287.037C2.16547 286.859 2.16547 286.681 2.16547 286.497Z" fill="#380C1C"/>
<path d="M529.35 629.68C540.017 635.443 546.535 648.953 550.394 659.897C550.578 660.41 550.578 660.41 550.765 660.933C556.63 677.592 556.42 696.361 548.726 712.449C542.326 725.273 531.869 736.063 518.044 740.687C517.317 740.919 516.589 741.15 515.86 741.376C515.955 741.789 516.05 742.201 516.149 742.626C519.614 757.779 519.614 757.779 519.637 765.118C505.411 770.955 480.75 760.331 467.471 754.804C455.8 749.762 455.8 749.762 452.727 745.153C451.242 737.616 455.923 729.013 459.202 722.49C459.547 721.79 459.89 721.09 460.233 720.389C461.309 718.201 462.411 716.028 463.519 713.857C463.698 713.502 463.877 713.148 464.062 712.783C476.815 687.641 476.815 687.641 484.563 680.941C487.001 680.989 488.162 682.09 489.825 683.774C493.408 687.518 501.291 696.233 501.291 701.986C509.651 702.247 515.183 701.709 521.796 696.05C531.09 687.278 533.715 675.333 534.284 663.074C534.307 661.649 534.272 660.242 534.206 658.818C534.184 658.219 534.162 657.62 534.139 657.003C533.747 649.265 532.43 641.825 530.227 634.401C529.744 632.771 529.35 631.39 529.35 629.68Z" fill="#52902B"/>
<path d="M363.694 626.442C365.529 627.483 367.014 628.782 368.551 630.219C368.899 630.532 369.247 630.844 369.607 631.166C382.974 643.771 392.749 662.063 401.061 678.21C401.268 678.602 401.475 678.994 401.688 679.399C402.808 681.628 403.325 683.241 403.085 685.798C397.47 688.532 391.826 689.71 385.577 689.518C379.902 689.17 379.902 689.17 375.053 691.533C374.092 693.207 373.415 694.742 372.867 696.59C372.689 697.124 372.511 697.658 372.328 698.208C371.987 705.323 371.987 705.323 373.407 712.238C373.579 712.739 373.75 713.241 373.927 713.758C375.492 717.881 377.688 721.208 380.422 724.649C380.753 725.092 381.084 725.536 381.425 725.993C382.779 727.58 384.281 728.867 385.919 730.146C386.244 730.4 386.57 730.655 386.906 730.917C392.478 735.165 398.722 738.805 405.243 741.376C405.879 741.628 406.514 741.881 407.169 742.141C413.905 744.706 420.886 746.272 427.906 747.851C418.949 754.892 403.942 753.998 393.256 752.858C379.779 751.164 367.135 746.376 356.679 737.599C356.217 737.211 355.754 736.824 355.278 736.425C346.897 729.133 339.909 720.024 336.883 709.203C336.769 708.812 336.654 708.421 336.536 708.018C335.487 704.363 335.015 700.929 335.043 697.117C335.044 696.714 335.044 696.311 335.045 695.896C335.048 694.621 335.055 693.346 335.062 692.07C335.065 691.201 335.067 690.332 335.069 689.463C335.075 687.342 335.085 685.221 335.096 683.1C334.729 682.999 334.363 682.899 333.986 682.796C314.267 677.38 314.267 677.38 312.972 676.085C313.093 669.428 318.156 664.308 322.145 659.358C322.585 658.806 323.025 658.254 323.477 657.686C327.095 653.26 331.102 649.208 335.129 645.159C335.403 644.883 335.676 644.607 335.958 644.322C339.623 640.628 343.404 637.212 347.506 633.997C347.834 633.737 348.162 633.477 348.5 633.209C358.795 625.118 358.795 625.118 363.694 626.442Z" fill="#52902B"/>
<path d="M492.082 548.264C495.04 549.116 496.042 551.579 497.514 554.137C506.028 569.921 511.975 589.978 512.353 607.961C512.378 608.714 512.378 608.714 512.403 609.482C512.403 611.744 512.348 613.497 510.964 615.351C509.223 616.871 507.606 617.711 505.439 618.416C505.044 618.548 504.649 618.681 504.242 618.818C500.881 619.88 497.477 620.584 494.006 621.181C493.538 621.263 493.07 621.344 492.587 621.428C482.005 623.079 471.291 623.384 460.601 623.345C458.67 623.34 456.738 623.345 454.807 623.352C453.558 623.352 452.309 623.35 451.06 623.348C450.493 623.35 449.926 623.352 449.341 623.355C445.853 623.333 442.629 622.947 439.237 622.126C438.956 614.186 442.706 605.615 447.226 599.148C448.099 597.382 447.872 596.48 447.331 594.606C444.297 588.175 439.82 585.594 433.329 583.258C431.321 582.62 429.462 582.254 427.366 582.196C426.793 582.162 426.219 582.129 425.627 582.094C413.695 581.693 402.838 586.475 393.372 593.527C393.081 593.742 392.79 593.958 392.491 594.18C386.261 598.826 380.118 603.937 375.205 609.991C374.486 610.794 374.486 610.794 372.867 611.873C373.436 594.499 384.431 579.769 396.477 568.099C409.798 555.634 426.975 550.846 444.879 551.367C455.138 551.899 465.921 556.835 473.772 563.31C475.346 562.6 476.442 561.844 477.641 560.605C477.953 560.287 478.265 559.969 478.587 559.641C478.912 559.305 479.237 558.968 479.572 558.622C481.951 556.199 484.329 553.833 486.939 551.656C487.945 550.806 487.945 550.806 489.217 549.28C490.499 548.201 490.499 548.201 492.082 548.264Z" fill="#51902B"/>
<path d="M504.528 295.671C508.259 295.977 511.876 296.526 515.542 297.272C516.073 297.378 516.603 297.484 517.15 297.593C518.293 297.82 519.436 298.049 520.578 298.279C523.671 298.9 526.765 299.511 529.86 300.122C530.495 300.248 531.129 300.373 531.784 300.502C538.056 301.735 544.341 302.892 550.63 304.034C560.082 305.753 569.521 307.532 578.953 309.357C586.339 310.786 593.727 312.199 601.12 313.589C601.514 313.663 601.908 313.737 602.313 313.813C605.129 314.342 607.945 314.871 610.761 315.399C621.269 317.372 631.772 319.364 642.26 321.436C651.048 323.173 659.849 324.819 668.661 326.424C678.65 328.243 688.622 330.141 698.59 332.073C703.743 333.072 708.897 334.065 714.062 335.004C714.686 335.118 714.686 335.118 715.322 335.234C717.2 335.578 719.077 335.917 720.957 336.248C721.587 336.363 722.217 336.477 722.866 336.595C723.405 336.691 723.945 336.787 724.5 336.885C725.762 337.219 725.762 337.219 726.842 338.299C658.998 338.299 591.155 338.299 521.256 338.299C519.57 334.59 517.929 330.916 516.433 327.136C516.153 326.431 516.153 326.431 515.867 325.713C514.67 322.694 513.519 319.662 512.398 316.614C511.428 314.006 510.402 311.421 509.364 308.84C509.217 308.475 509.07 308.11 508.919 307.734C508.171 305.875 507.42 304.018 506.666 302.162C506.388 301.472 506.109 300.782 505.831 300.093C505.58 299.475 505.33 298.858 505.071 298.221C504.528 296.75 504.528 296.75 504.528 295.671Z" fill="#390D1D"/>
<path d="M227.986 374.856C229.335 374.991 229.335 374.991 230.414 376.07C230.549 377.28 230.549 377.28 230.549 378.826C230.552 379.414 230.555 380.002 230.558 380.609C230.555 381.262 230.553 381.915 230.55 382.588C230.552 383.279 230.553 383.971 230.555 384.683C230.559 386.617 230.556 388.552 230.553 390.486C230.55 392.585 230.554 394.683 230.556 396.782C230.56 400.465 230.56 404.149 230.557 407.832C230.553 413.309 230.555 418.786 230.559 424.263C230.564 434.042 230.564 443.822 230.561 453.602C230.558 462.16 230.557 470.718 230.559 479.276C230.559 480.127 230.559 480.127 230.559 480.994C230.559 483.294 230.56 485.595 230.56 487.896C230.563 509.495 230.56 531.094 230.554 552.693C230.549 571.899 230.55 591.106 230.555 610.312C230.561 631.87 230.563 653.429 230.56 674.988C230.559 677.284 230.559 679.581 230.559 681.877C230.558 682.725 230.558 682.725 230.558 683.591C230.557 692.145 230.559 700.7 230.561 709.255C230.564 718.978 230.564 728.701 230.558 738.424C230.555 743.871 230.554 749.319 230.558 754.766C230.561 758.398 230.559 762.031 230.555 765.663C230.552 767.737 230.551 769.811 230.555 771.885C230.559 774.112 230.555 776.339 230.55 778.566C230.554 779.545 230.554 779.545 230.558 780.545C230.555 781.133 230.552 781.722 230.549 782.328C230.549 783.093 230.549 783.093 230.549 783.873C230.414 785.083 230.414 785.083 229.335 786.162C227.986 786.297 227.986 786.297 226.637 786.162C225.249 784.775 225.423 784.256 225.423 782.328C225.42 781.739 225.417 781.151 225.414 780.545C225.417 779.892 225.419 779.239 225.422 778.566C225.42 777.874 225.419 777.183 225.417 776.47C225.413 774.536 225.416 772.602 225.419 770.667C225.422 768.569 225.418 766.47 225.416 764.371C225.412 760.688 225.412 757.005 225.415 753.322C225.419 747.845 225.417 742.368 225.413 736.891C225.408 727.111 225.408 717.331 225.411 707.552C225.414 698.994 225.415 690.435 225.413 681.877C225.413 681.31 225.413 680.744 225.413 680.16C225.413 677.859 225.412 675.558 225.412 673.258C225.409 651.659 225.412 630.06 225.418 608.46C225.423 589.254 225.422 570.048 225.417 550.842C225.411 529.283 225.409 507.724 225.412 486.166C225.413 483.869 225.413 481.573 225.413 479.276C225.414 478.711 225.414 478.145 225.414 477.563C225.415 469.008 225.413 460.453 225.411 451.899C225.408 442.176 225.408 432.453 225.414 422.73C225.417 417.282 225.418 411.835 225.414 406.387C225.411 402.755 225.413 399.123 225.417 395.49C225.42 393.416 225.421 391.343 225.417 389.269C225.413 387.042 225.417 384.815 225.422 382.588C225.42 381.935 225.417 381.282 225.414 380.609C225.417 380.02 225.42 379.432 225.423 378.826C225.423 378.316 225.423 377.806 225.423 377.28C225.625 375.471 226.201 375.035 227.986 374.856Z" fill="#380C1C"/>
<path d="M302.058 950.055C302.72 950.058 302.72 950.058 303.394 950.062C304.096 950.059 304.096 950.059 304.813 950.057C306.399 950.052 307.985 950.056 309.571 950.059C310.712 950.057 311.854 950.055 312.995 950.052C316.146 950.047 319.296 950.048 322.447 950.05C325.839 950.052 329.232 950.047 332.624 950.043C339.276 950.036 345.927 950.035 352.578 950.036C357.982 950.037 363.386 950.036 368.789 950.034C369.565 950.034 370.34 950.033 371.115 950.033C372.284 950.032 373.452 950.032 374.62 950.032C385.488 950.027 396.355 950.025 407.223 950.027C407.838 950.027 407.838 950.027 408.465 950.027C410.544 950.028 412.622 950.028 414.7 950.028C415.319 950.029 415.319 950.029 415.951 950.029C416.785 950.029 417.62 950.029 418.455 950.029C431.445 950.032 444.435 950.028 457.425 950.018C472.008 950.007 486.592 950.001 501.175 950.003C502.729 950.003 504.283 950.004 505.836 950.004C506.41 950.004 506.41 950.004 506.996 950.004C512.781 950.005 518.567 950.001 524.352 949.995C530.929 949.989 537.506 949.988 544.083 949.995C547.441 949.998 550.8 949.998 554.158 949.992C557.228 949.986 560.299 949.988 563.369 949.995C564.484 949.997 565.599 949.995 566.713 949.991C568.221 949.986 569.728 949.99 571.236 949.997C571.675 949.993 572.115 949.989 572.568 949.985C575.478 950.014 575.478 950.014 576.853 950.935C577.374 951.818 577.374 951.818 577.273 953.201C576.834 954.516 576.834 954.516 575.755 955.595C574.253 955.702 572.805 955.74 571.302 955.731C570.834 955.733 570.366 955.734 569.883 955.736C568.297 955.74 566.71 955.736 565.124 955.732C563.982 955.734 562.84 955.735 561.698 955.737C558.546 955.742 555.395 955.74 552.243 955.736C548.849 955.734 545.456 955.738 542.062 955.741C535.794 955.745 529.526 955.745 523.257 955.742C517.468 955.739 511.678 955.738 505.888 955.74C505.504 955.74 505.121 955.74 504.725 955.74C503.169 955.74 501.612 955.741 500.055 955.741C485.441 955.744 470.827 955.741 456.213 955.736C443.22 955.73 430.226 955.731 417.232 955.736C402.645 955.742 388.059 955.744 373.472 955.741C371.918 955.74 370.364 955.74 368.81 955.74C368.236 955.74 368.236 955.74 367.651 955.739C361.863 955.738 356.076 955.74 350.288 955.742C343.71 955.746 337.132 955.745 330.554 955.739C327.194 955.736 323.835 955.735 320.475 955.739C317.405 955.742 314.334 955.74 311.263 955.734C310.148 955.733 309.032 955.734 307.917 955.736C306.41 955.739 304.903 955.736 303.396 955.731C302.734 955.735 302.734 955.735 302.059 955.739C299.066 955.719 299.066 955.719 297.864 954.516C297.729 952.897 297.729 952.897 297.864 951.279C299.25 949.892 300.168 950.068 302.058 950.055Z" fill="#3D151E"/>
<path d="M250.379 232.538C250.919 233.078 250.919 233.078 251.144 234.481C250.824 237.083 249.54 238.364 247.85 240.295C247.204 241.06 246.558 241.825 245.913 242.59C245.58 242.98 245.247 243.369 244.903 243.771C243.324 245.632 241.795 247.534 240.262 249.434C239.675 250.157 239.087 250.88 238.5 251.603C238.086 252.112 238.086 252.112 237.664 252.631C236.215 254.41 234.76 256.185 233.306 257.96C230.844 260.972 228.394 263.994 225.942 267.014C225.015 268.155 224.089 269.294 223.161 270.434C222.555 271.179 221.949 271.925 221.342 272.67C221.048 273.032 220.753 273.394 220.45 273.767C218.855 275.728 217.276 277.701 215.71 279.685C210.557 286.098 205.114 292.666 196.487 293.698C192.489 293.902 189.422 293.192 186.167 290.814C184 288.756 182.812 286.289 181.555 283.606C180.028 280.057 180.028 280.057 177.298 277.459C173.507 276.129 170.153 275.57 166.169 275.469C156.822 275.078 149.242 273.4 142.585 266.383C138.878 261.858 136.53 256.785 137.064 250.884C137.604 250.345 137.604 250.345 139.155 250.176C140.841 250.345 140.841 250.345 141.697 251.226C142.6 252.737 142.972 254.136 143.405 255.842C144.781 260.456 146.88 263.54 150.925 266.195C156.016 268.946 161.145 269.355 166.812 269.59C172.934 269.849 178.854 270.766 183.301 275.402C185.331 277.894 186.576 280.783 187.856 283.707C189.034 285.705 190.055 286.513 192.103 287.577C195.416 288.236 198.915 287.676 201.816 285.958C207.8 281.477 212.301 275.215 216.853 269.36C218.809 266.853 220.844 264.422 222.909 262.003C224.697 259.906 226.432 257.775 228.144 255.616C229.642 253.737 231.157 251.872 232.674 250.007C232.971 249.642 233.268 249.277 233.574 248.9C235.129 246.987 236.687 245.075 238.247 243.165C238.556 242.786 238.866 242.407 239.184 242.016C239.77 241.298 240.355 240.582 240.942 239.865C242.664 237.753 244.308 235.602 245.903 233.393C247.31 231.672 248.372 232.023 250.379 232.538Z" fill="#3F1221"/>
<path d="M421.97 328.046C423.05 329.665 423.05 329.665 423.016 331.014C422.51 332.363 422.51 332.363 419.812 333.982C416.251 335.228 412.689 336.475 409.02 337.759C445.88 337.937 482.74 338.115 520.716 338.299C520.894 337.942 521.072 337.586 521.256 337.219C521.256 337.575 521.256 337.932 521.256 338.299C521.911 338.296 521.911 338.296 522.58 338.294C548.448 338.202 574.316 338.116 600.184 338.037C603.287 338.028 606.39 338.018 609.493 338.009C610.111 338.007 610.729 338.005 611.365 338.003C621.381 337.972 631.396 337.937 641.411 337.901C651.681 337.864 661.95 337.832 672.22 337.803C678.561 337.785 684.903 337.763 691.244 337.738C695.587 337.721 699.931 337.708 704.274 337.698C706.783 337.692 709.292 337.684 711.801 337.672C714.095 337.661 716.389 337.655 718.683 337.652C719.516 337.651 720.349 337.647 721.182 337.641C722.308 337.634 723.434 337.634 724.56 337.635C725.188 337.633 725.815 337.63 726.462 337.628C727.921 337.759 727.921 337.759 729 338.838C555.563 338.838 382.127 338.838 203.434 338.838C203.434 552.34 203.434 765.841 203.434 985.813C203.256 985.813 203.078 985.813 202.895 985.813C202.895 772.133 202.895 558.453 202.895 338.299C296.647 338.031 296.647 338.031 392.293 337.759C419.272 328.046 419.272 328.046 421.97 328.046Z" fill="#679939"/>
<path d="M415.563 156.017C416.574 156.455 416.574 156.455 417.654 157.534C417.871 158.797 417.871 158.797 417.654 160.232C406.984 173.529 386.945 180.901 371.249 185.593C370.838 185.725 370.428 185.856 370.005 185.992C364.116 187.625 356.689 187.518 351.283 184.514C350.312 183.717 350.312 183.717 349.665 182.895C349.797 181.092 349.991 180.41 351.283 179.118C352.972 179.271 354.411 179.616 355.999 180.21C368.34 183.905 384.29 175.635 394.991 169.945C400.594 166.858 405.569 163.143 410.462 159.037C414.207 155.897 414.207 155.897 415.563 156.017Z" fill="#401322"/>
<path d="M307.306 0.916756C308.655 1.05165 308.655 1.05165 309.735 2.13084C310.034 3.09999 310.329 4.07062 310.596 5.04908C312.921 13.5295 318.712 18.7913 325.653 23.917C326.127 24.2681 326.601 24.6192 327.09 24.9809C337.285 32.4537 348.202 38.3505 360.334 42.0482C362.075 42.6005 362.075 42.6005 362.615 43.1401C362.716 44.7251 362.716 44.7251 362.615 46.3776C361.536 47.4568 361.536 47.4568 360.532 47.4975C357.541 47.1284 354.844 46.4614 352.025 45.3996C351.592 45.237 351.158 45.0744 350.711 44.9069C341.648 41.3762 333.153 36.5623 325.383 30.7294C325.056 30.4853 324.729 30.2413 324.391 29.9898C316.561 24.1057 307.951 17.5891 305.013 7.79659C304.821 5.87467 304.783 4.06488 304.878 2.13084C305.958 1.05165 305.958 1.05165 307.306 0.916756Z" fill="#401321"/>
<path d="M423.589 194.766C424.123 195.3 424.123 195.3 424.668 195.845C424.646 197.418 424.646 197.418 424.129 199.083C422.893 200.076 422.893 200.076 421.25 200.9C420.647 201.208 420.044 201.517 419.423 201.834C418.766 202.155 418.109 202.474 417.451 202.793C416.778 203.128 416.106 203.464 415.433 203.801C403.287 209.834 390.665 214.397 377.521 217.767C376.983 217.907 376.444 218.047 375.889 218.192C375.389 218.314 374.888 218.437 374.372 218.563C373.937 218.671 373.501 218.778 373.052 218.889C371.583 219.074 370.508 218.924 369.09 218.508C368.011 217.429 368.011 217.429 367.876 216.08C368.011 214.731 368.011 214.731 369.09 213.652C370.351 213.268 370.351 213.268 371.95 212.91C372.847 212.702 372.847 212.702 373.762 212.489C374.412 212.339 375.063 212.188 375.734 212.033C391.005 208.341 405.731 202.868 419.313 194.91C421.079 194.146 421.804 194.104 423.589 194.766Z" fill="#401322"/>
<path d="M288.421 34.5972C289.97 35.1127 290.411 35.551 291.388 36.8335C294.135 40.163 297.344 42.9751 300.562 45.838C300.838 46.0851 301.115 46.3321 301.4 46.5866C309.194 53.4896 317.661 59.3869 326.568 64.7576C329.103 66.2889 331.567 67.9161 334.016 69.5802C333.612 72.1433 333.612 72.1433 332.398 73.3574C319.469 72.5632 302.722 55.4134 293.849 47.1559C292.97 46.3436 292.085 45.5398 291.197 44.7378C290.901 44.4702 290.606 44.2027 290.302 43.9271C289.736 43.4145 289.168 42.9031 288.6 42.3931C285.533 39.6052 285.533 39.6052 285.284 37.1708C285.34 36.6477 285.396 36.1247 285.453 35.5857C287.072 34.5065 287.072 34.5065 288.421 34.5972Z" fill="#3F1221"/>
<path d="M410.099 296.21C411.179 297.289 411.179 297.289 411.347 298.605C411.145 300.266 410.826 300.563 409.56 301.606C408.49 302.077 408.49 302.077 407.264 302.458C406.808 302.603 406.352 302.749 405.883 302.899C405.393 303.051 404.904 303.203 404.4 303.36C400.674 304.556 397.003 305.814 393.372 307.272C389.27 308.913 385.113 310.335 380.909 311.692C380.454 311.839 380 311.987 379.532 312.139C378.93 312.332 378.93 312.332 378.315 312.528C377.164 312.916 377.164 312.916 376.068 313.523C374.624 314.207 373.363 314.088 371.788 314.017C371.016 312.473 371.04 311.405 371.248 309.7C373.039 308.416 374.916 307.655 376.984 306.924C377.878 306.605 377.878 306.605 378.79 306.28C379.748 305.944 379.748 305.944 380.725 305.6C381.734 305.242 382.743 304.883 383.753 304.525C385.162 304.025 386.572 303.528 387.982 303.03C390.108 302.28 392.233 301.526 394.358 300.772C396.011 300.185 397.666 299.6 399.32 299.015C400.214 298.699 400.214 298.699 401.126 298.377C401.649 298.192 402.172 298.008 402.71 297.818C403.681 297.465 404.643 297.089 405.595 296.69C407.178 296.09 408.42 296.061 410.099 296.21Z" fill="#401321"/>
<path d="M149.599 162.705C151.685 163.019 152.932 164.141 154.5 165.46C154.827 165.725 155.154 165.991 155.491 166.265C156.548 167.126 157.598 167.996 158.648 168.866C160.051 170.015 161.457 171.16 162.864 172.306C163.397 172.742 163.397 172.742 163.942 173.186C166.625 175.371 169.352 177.492 172.104 179.59C172.489 179.885 172.875 180.18 173.272 180.484C174.864 181.699 176.46 182.899 178.092 184.061C181.171 186.28 181.171 186.28 181.952 188.46C181.851 189.91 181.851 189.91 180.771 190.989C178.626 191.318 177.719 191.106 175.869 189.937C175.271 189.453 174.679 188.96 174.094 188.46C173.771 188.195 173.448 187.931 173.115 187.658C172.423 187.09 171.734 186.519 171.047 185.945C169.256 184.449 167.441 182.983 165.629 181.512C165.267 181.217 164.905 180.921 164.532 180.617C162.272 178.775 159.988 176.973 157.67 175.206C149.841 169.231 149.841 169.231 147.317 166.707C147.182 165.358 147.182 165.358 147.317 164.009C148.396 162.93 148.396 162.93 149.599 162.705Z" fill="#3F1221"/>
<path d="M169.44 139.728C170.895 140.633 172.159 141.744 173.453 142.864C174.228 143.514 175.003 144.164 175.778 144.814C176.165 145.14 176.551 145.467 176.95 145.804C178.554 147.144 180.199 148.429 181.851 149.71C185.007 152.172 188.115 154.69 191.217 157.221C193.555 159.126 195.912 161.002 198.306 162.837C199.118 163.47 199.118 163.47 199.657 164.009C199.758 165.325 199.758 165.325 199.657 166.707C198.578 167.787 198.578 167.787 196.888 167.795C194.15 167.076 192.638 165.726 190.552 163.874C189.739 163.179 188.926 162.485 188.111 161.792C187.492 161.264 187.492 161.264 186.861 160.724C184.972 159.144 183.011 157.664 181.041 156.185C177.782 153.722 174.585 151.193 171.43 148.597C171.046 148.282 170.662 147.967 170.266 147.642C166.357 144.406 166.357 144.406 165.123 142.965C165.191 141.515 165.191 141.515 165.663 140.267C167.131 139.533 167.796 139.481 169.44 139.728Z" fill="#3F1220"/>
<path d="M186.167 114.367C189.315 114.431 191.025 115.492 193.25 117.57C193.865 118.118 194.481 118.664 195.098 119.208C195.408 119.484 195.718 119.759 196.037 120.043C197.434 121.253 198.892 122.358 200.366 123.472C203.444 125.804 206.44 128.227 209.421 130.682C211.109 132.064 212.802 133.414 214.576 134.684C214.877 134.9 215.179 135.116 215.489 135.339C216.293 135.91 217.105 136.47 217.917 137.03C219.083 138.109 219.083 138.109 219.591 139.492C219.622 140.807 219.622 140.807 218.543 142.426C216.918 142.756 215.83 142.738 214.381 141.875C213.337 141.072 212.348 140.227 211.36 139.357C210.592 138.706 209.824 138.057 209.054 137.409C208.66 137.075 208.267 136.742 207.861 136.398C205.995 134.848 204.058 133.395 202.119 131.937C197.748 128.629 193.504 125.177 189.304 121.654C188.661 121.12 188.01 120.593 187.354 120.075C185.116 118.295 185.116 118.295 184.818 116.694C185.088 115.446 185.088 115.446 186.167 114.367Z" fill="#3E1220"/>
<path d="M208.377 87.1234C210.746 87.5307 212.138 88.9785 213.923 90.5233C214.697 91.173 215.471 91.8222 216.246 92.4709C216.632 92.7974 217.019 93.124 217.417 93.4605C219.034 94.812 220.69 96.1099 222.354 97.4031C226.014 100.263 229.642 103.164 233.266 106.07C234.137 106.768 235.009 107.465 235.882 108.161C236.37 108.551 236.858 108.94 237.361 109.342C237.783 109.678 238.205 110.014 238.639 110.36C239.587 111.129 239.587 111.129 240.127 111.669C240.228 112.984 240.228 112.984 240.127 114.367C239.771 114.723 239.415 115.079 239.048 115.446C236.006 115.352 234.5 114.557 232.269 112.545C231.706 112.05 231.142 111.557 230.576 111.064C230.285 110.807 229.994 110.551 229.695 110.286C228.2 108.996 226.644 107.788 225.086 106.576C224.446 106.077 223.807 105.577 223.168 105.078C222.849 104.829 222.531 104.581 222.203 104.325C221.25 103.582 220.299 102.836 219.348 102.089C219.037 101.844 218.725 101.599 218.404 101.347C217.781 100.856 217.158 100.364 216.536 99.8711C214.891 98.5682 213.229 97.2972 211.533 96.0604C211.182 95.7996 210.831 95.5388 210.47 95.27C209.798 94.7704 209.119 94.2788 208.434 93.7967C206.829 92.5909 206.179 91.9964 205.858 89.9773C206.188 88.1602 206.543 87.5379 208.377 87.1234Z" fill="#3E1120"/>
<path d="M421.97 328.046C423.05 329.665 423.05 329.665 423.016 331.014C422.229 333.113 420.639 333.598 418.663 334.515C409.999 338.261 402.19 338.861 392.832 338.299C394.308 337.108 395.639 336.342 397.422 335.703C397.899 335.531 398.376 335.358 398.868 335.18C399.38 335 399.891 334.819 400.418 334.633C400.948 334.444 401.477 334.254 402.023 334.059C403.141 333.661 404.26 333.264 405.38 332.869C407.092 332.264 408.801 331.65 410.509 331.036C411.597 330.65 412.685 330.263 413.773 329.878C414.539 329.602 414.539 329.602 415.32 329.321C415.799 329.153 416.278 328.986 416.771 328.813C417.19 328.665 417.609 328.516 418.041 328.363C419.434 328.005 420.539 327.877 421.97 328.046Z" fill="#401321"/>
</svg>
